<?xml version="1.0" encoding="utf-8"?>
<!-- Generator: Adobe Illustrator 23.0.5, SVG Export Plug-In . SVG Version: 6.00 Build 0)  -->
<svg version="1.1" id="Layer_1" xmlns="http://www.w3.org/2000/svg" xmlns:xlink="http://www.w3.org/1999/xlink" x="0px" y="0px"
	 viewBox="0 0 1827.5 1018.1" style="enable-background:new 0 0 1827.5 1018.1;" xml:space="preserve">
<style type="text/css">
	.st0{fill:#242526;stroke:#000000;stroke-miterlimit:10;}
</style>
<polygon class="st0" points="-105.7,52.8 -197.6,-0.4 -198.3,-106.8 -106.5,-160 -13.9,-106.8 -13.9,-0.4 "/>
<polygon class="st0" points="88.7,52.8 -3.2,-0.4 -3.9,-106.8 88,-160 180.5,-106.8 180.5,-0.4 "/>
<polygon class="st0" points="282.1,52.8 190.2,-0.4 189.5,-106.8 281.4,-160 373.9,-106.8 373.9,-0.4 "/>
<polygon class="st0" points="475.5,52.8 383.6,-0.4 382.9,-106.8 474.8,-160 567.3,-106.8 567.3,-0.4 "/>
<polygon class="st0" points="668.9,52.8 577,-0.4 576.3,-106.8 668.2,-160 760.7,-106.8 760.7,-0.4 "/>
<polygon class="st0" points="862.3,52.8 770.5,-0.4 769.7,-106.8 861.6,-160 954.2,-106.8 954.2,-0.4 "/>
<polygon class="st0" points="1055.7,52.8 963.9,-0.4 963.2,-106.8 1055,-160 1147.6,-106.8 1147.6,-0.4 "/>
<polygon class="st0" points="1249.1,52.8 1157.3,-0.4 1156.6,-106.8 1248.4,-160 1341,-106.8 1341,-0.4 "/>
<polygon class="st0" points="-6.8,221.7 -98.7,168.5 -99.4,62.1 -7.5,8.9 85,62.1 85,168.5 "/>
<polygon class="st0" points="186.6,221.7 94.7,168.5 94,62.1 185.9,8.9 278.4,62.1 278.4,168.5 "/>
<polygon class="st0" points="381,221.7 289.1,168.5 288.4,62.1 380.3,8.9 472.8,62.1 472.8,168.5 "/>
<polygon class="st0" points="573.4,221.7 481.5,168.5 480.8,62.1 572.7,8.9 665.2,62.1 665.2,168.5 "/>
<polygon class="st0" points="766.8,221.7 675,168.5 674.2,62.1 766.1,8.9 858.7,62.1 858.7,168.5 "/>
<polygon class="st0" points="961.2,221.7 869.4,168.5 868.7,62.1 960.5,8.9 1053.1,62.1 1053.1,168.5 "/>
<polygon class="st0" points="1153.6,221.7 1061.8,168.5 1061.1,62.1 1152.9,8.9 1245.5,62.1 1245.5,168.5 "/>
<polygon class="st0" points="1345,221.7 1253.2,168.5 1252.5,62.1 1344.3,8.9 1436.9,62.1 1436.9,168.5 "/>
<polygon class="st0" points="-104.3,391.2 -196.2,338 -196.9,231.7 -105,178.5 -12.5,231.7 -12.5,338 "/>
<polygon class="st0" points="90.1,391.2 -1.8,338 -2.5,231.7 89.4,178.5 181.9,231.7 181.9,338 "/>
<polygon class="st0" points="283.5,391.2 191.7,338 190.9,231.7 282.8,178.5 375.3,231.7 375.3,338 "/>
<polygon class="st0" points="476.9,391.2 385.1,338 384.3,231.7 476.2,178.5 568.8,231.7 568.8,338 "/>
<polygon class="st0" points="670.3,391.2 578.5,338 577.8,231.7 669.6,178.5 762.2,231.7 762.2,338 "/>
<polygon class="st0" points="863.7,391.2 771.9,338 771.2,231.7 863,178.5 955.6,231.7 955.6,338 "/>
<polygon class="st0" points="1057.1,391.2 965.3,338 964.6,231.7 1056.4,178.5 1149,231.7 1149,338 "/>
<polygon class="st0" points="1250.5,391.2 1158.7,338 1158,231.7 1249.8,178.5 1342.4,231.7 1342.4,338 "/>
<polygon class="st0" points="-5.4,560.8 -97.3,507.6 -98,401.2 -6.1,348 86.4,401.2 86.4,507.6 "/>
<polygon class="st0" points="188,560.8 96.1,507.6 95.4,401.2 187.3,348 279.8,401.2 279.8,507.6 "/>
<polygon class="st0" points="382.4,560.8 290.6,507.6 289.8,401.2 381.7,348 474.3,401.2 474.3,507.6 "/>
<polygon class="st0" points="576.8,560.8 485,507.6 484.3,401.2 576.1,348 668.7,401.2 668.7,507.6 "/>
<polygon class="st0" points="769.2,560.8 677.4,507.6 676.7,401.2 768.5,348 861.1,401.2 861.1,507.6 "/>
<polygon class="st0" points="963.6,560.8 871.8,507.6 871.1,401.2 962.9,348 1055.5,401.2 1055.5,507.6 "/>
<polygon class="st0" points="1156,560.8 1064.2,507.6 1063.5,401.2 1155.4,348 1247.9,401.2 1247.9,507.6 "/>
<polygon class="st0" points="1348.5,560.8 1256.6,507.6 1255.9,401.2 1347.8,348 1440.3,401.2 1440.3,507.6 "/>
<polygon class="st0" points="-102.9,730.4 -194.8,677.2 -195.5,570.8 -103.6,517.6 -11,570.8 -11,677.2 "/>
<polygon class="st0" points="91.5,730.4 -0.4,677.2 -1,570.8 90.8,517.6 183.4,570.8 183.4,677.2 "/>
<polygon class="st0" points="284.9,730.4 193.1,677.2 192.4,570.8 284.2,517.6 376.8,570.8 376.8,677.2 "/>
<polygon class="st0" points="478.3,730.4 386.5,677.2 385.8,570.8 477.6,517.6 570.2,570.8 570.2,677.2 "/>
<polygon class="st0" points="671.7,730.4 579.9,677.2 579.2,570.8 671,517.6 763.6,570.8 763.6,677.2 "/>
<polygon class="st0" points="865.2,730.4 773.3,677.2 772.6,570.8 864.4,517.6 957,570.8 957,677.2 "/>
<polygon class="st0" points="1058.6,730.4 966.7,677.2 966,570.8 1057.9,517.6 1150.4,570.8 1150.4,677.2 "/>
<polygon class="st0" points="1252,730.4 1160.1,677.2 1159.4,570.8 1251.3,517.6 1343.8,570.8 1343.8,677.2 "/>
<polygon class="st0" points="-4,901 -95.8,847.8 -96.6,741.4 -4.7,688.2 87.9,741.4 87.9,847.8 "/>
<polygon class="st0" points="189.4,901 97.6,847.8 96.9,741.4 188.7,688.2 281.3,741.4 281.3,847.8 "/>
<polygon class="st0" points="381.8,901 290,847.8 289.3,741.4 381.1,688.2 473.7,741.4 473.7,847.8 "/>
<polygon class="st0" points="577.2,901 485.4,847.8 484.7,741.4 576.5,688.2 669.1,741.4 669.1,847.8 "/>
<polygon class="st0" points="770.7,901 678.8,847.8 678.1,741.4 769.9,688.2 862.5,741.4 862.5,847.8 "/>
<polygon class="st0" points="965.1,901 873.2,847.8 872.5,741.4 964.4,688.2 1056.9,741.4 1056.9,847.8 "/>
<polygon class="st0" points="1157.5,901 1065.6,847.8 1064.9,741.4 1156.8,688.2 1249.3,741.4 1249.3,847.8 "/>
<polygon class="st0" points="1349.9,901 1258,847.8 1257.3,741.4 1349.2,688.2 1441.7,741.4 1441.7,847.8 "/>
<polygon class="st0" points="-101.9,1072.4 -193.8,1019.2 -194.5,912.8 -102.6,859.6 -10,912.8 -10,1019.2 "/>
<polygon class="st0" points="92.5,1072.4 0.6,1019.2 0,912.8 91.8,859.6 184.4,912.8 184.4,1019.2 "/>
<polygon class="st0" points="285.9,1072.4 194.1,1019.2 193.4,912.8 285.2,859.6 377.8,912.8 377.8,1019.2 "/>
<polygon class="st0" points="479.3,1072.4 387.5,1019.2 386.8,912.8 478.6,859.6 571.2,912.8 571.2,1019.2 "/>
<polygon class="st0" points="672.7,1072.4 580.9,1019.2 580.2,912.8 672,859.6 764.6,912.8 764.6,1019.2 "/>
<polygon class="st0" points="866.2,1072.4 774.3,1019.2 773.6,912.8 865.4,859.6 958,912.8 958,1019.2 "/>
<polygon class="st0" points="1059.6,1072.4 967.7,1019.2 967,912.8 1058.9,859.6 1151.4,912.8 1151.4,1019.2 "/>
<polygon class="st0" points="1253,1072.4 1161.1,1019.2 1160.4,912.8 1252.3,859.6 1344.8,912.8 1344.8,1019.2 "/>
<polygon class="st0" points="1441.9,52.8 1350,-0.4 1349.3,-106.8 1441.2,-160 1533.8,-106.8 1533.8,-0.4 "/>
<polygon class="st0" points="1635.3,52.8 1543.5,-0.4 1542.8,-106.8 1634.6,-160 1727.2,-106.8 1727.2,-0.4 "/>
<polygon class="st0" points="1827.7,52.8 1735.9,-0.4 1735.2,-106.8 1827,-160 1919.6,-106.8 1919.6,-0.4 "/>
<polygon class="st0" points="1539.8,221.7 1448,168.5 1447.3,62.1 1539.1,8.9 1631.7,62.1 1631.7,168.5 "/>
<polygon class="st0" points="1730.2,221.7 1638.4,168.5 1637.7,62.1 1729.5,8.9 1822.1,62.1 1822.1,168.5 "/>
<polygon class="st0" points="1924.6,221.7 1832.8,168.5 1832.1,62.1 1923.9,8.9 2016.5,62.1 2016.5,168.5 "/>
<polygon class="st0" points="1443.3,391.2 1351.5,338 1350.8,231.7 1442.6,178.5 1535.2,231.7 1535.2,338 "/>
<polygon class="st0" points="1636.7,391.2 1544.9,338 1544.2,231.7 1636,178.5 1728.6,231.7 1728.6,338 "/>
<polygon class="st0" points="1829.1,391.2 1737.3,338 1736.6,231.7 1828.4,178.5 1921,231.7 1921,338 "/>
<polygon class="st0" points="1541.2,560.8 1449.4,507.6 1448.7,401.2 1540.5,348 1633.1,401.2 1633.1,507.6 "/>
<polygon class="st0" points="1735.6,560.8 1643.8,507.6 1643.1,401.2 1734.9,348 1827.5,401.2 1827.5,507.6 "/>
<polygon class="st0" points="1930,560.8 1838.2,507.6 1837.5,401.2 1929.4,348 2021.9,401.2 2021.9,507.6 "/>
<polygon class="st0" points="1444.7,730.4 1352.9,677.2 1352.2,570.8 1444,517.6 1536.6,570.8 1536.6,677.2 "/>
<polygon class="st0" points="1638.1,730.4 1546.3,677.2 1545.6,570.8 1637.4,517.6 1730,570.8 1730,677.2 "/>
<polygon class="st0" points="1830.6,730.4 1738.7,677.2 1738,570.8 1829.9,517.6 1922.4,570.8 1922.4,677.2 "/>
<polygon class="st0" points="1542.6,901 1450.8,847.8 1450.1,741.4 1541.9,688.2 1634.5,741.4 1634.5,847.8 "/>
<polygon class="st0" points="1737.1,901 1645.2,847.8 1644.5,741.4 1736.4,688.2 1828.9,741.4 1828.9,847.8 "/>
<polygon class="st0" points="1931.5,901 1839.6,847.8 1838.9,741.4 1930.8,688.2 2023.3,741.4 2023.3,847.8 "/>
<polygon class="st0" points="1445.7,1072.4 1353.9,1019.2 1353.2,912.8 1445,859.6 1537.6,912.8 1537.6,1019.2 "/>
<polygon class="st0" points="1639.1,1072.4 1547.3,1019.2 1546.6,912.8 1638.4,859.6 1731,912.8 1731,1019.2 "/>
<polygon class="st0" points="1831.6,1072.4 1739.7,1019.2 1739,912.8 1830.9,859.6 1923.4,912.8 1923.4,1019.2 "/>
</svg>
